<?xml version="1.0" encoding="utf-8"?>
<!-- Svg Vector Icons : http://www.onlinewebfonts.com/icon -->
<!DOCTYPE svg PUBLIC "-//W3C//DTD SVG 1.1//EN" "http://www.w3.org/Graphics/SVG/1.1/DTD/svg11.dtd">
<svg version="1.1" xmlns="http://www.w3.org/2000/svg" xmlns:xlink="http://www.w3.org/1999/xlink" x="0px" y="0px" viewBox="0 0 1000 1000" enable-background="new 0 0 1000 1000" xml:space="preserve">
<metadata> Svg Vector Icons : http://www.onlinewebfonts.com/icon </metadata>
<g><path d="M503.5,345.8c-1.2,0-2.3-0.2-3.3-0.5c-5.8-1.8-9.1-8.1-7.2-13.8l69.1-218.8c1.8-5.6,7.4-8.7,13-7.4l188.2,44.3c5.9,1.5,9.7,7.4,8.2,13.3c-1.3,5.9-7.4,9.7-13.3,8.2l-178.1-42l-66,208.9C512.6,342.9,508.1,345.8,503.5,345.8z"/><path d="M837.6,260.9c-47.1,0-85.3-38.2-85.3-85.3c0-47.1,38.2-85.3,85.3-85.3c47.1,0,85.3,38.2,85.3,85.3C922.8,222.7,884.6,260.9,837.6,260.9z M837.6,112.4c-34.7,0-63.1,28.3-63.1,63.2c0,34.9,28.3,63.2,63.1,63.2c34.7,0,63-28.3,63-63.2C900.8,140.7,872.5,112.4,837.6,112.4z"/><path d="M32.1,490.9c0-45.8,37.2-83.1,83-83.1c21.1,0,40.2,7.9,54.8,20.9c5.9-4.4,12.2-8.7,18.4-13c-18.9-18.6-44.9-30-73.4-30C57.2,385.7,10,432.8,10,490.9c0,39.5,21.9,74.1,54.3,92c1.5-7.6,3.3-15,5.6-22.4C47.2,545.7,32.1,520,32.1,490.9z"/><path d="M990,490.9c0-57.9-47.2-105.2-105.2-105.2c-29.3,0-56,12.2-75.1,31.6c6.3,4.3,12.5,8.6,18.3,13c14.8-14,34.7-22.6,56.8-22.6c45.8,0,83,37.2,83,83.1c0,30.6-16.6,57.3-41.3,71.8c2.1,7.4,3.9,14.8,5.4,22.2C966.3,567.6,990,531.9,990,490.9z"/><path d="M931.9,584.9c-1.3-7.6-3.1-15-5.4-22.2c-14.8-48.9-48.4-94.3-98.4-132.4c-5.9-4.4-12-8.7-18.3-13c-1.5-1-3-2-4.4-3C723,360.6,613.8,331,497.9,331c-115.9,0-225.2,29.6-307.4,83.3c-0.7,0.5-1.3,0.8-2,1.3c-6.4,4.3-12.5,8.6-18.4,13c-50.5,37.9-84.8,83-100.1,131.9c-2.3,7.4-4.3,14.8-5.6,22.4c-2.3,12.3-3.6,24.9-3.6,37.4c0,78.2,46.1,151.5,129.9,206.1c82.3,53.7,191.5,83.3,307.4,83.3c115.9,0,225.2-29.6,307.4-83.3c83.6-54.7,129.7-127.9,129.7-206.1C935.2,608.4,934,596.6,931.9,584.9z M497.9,887.6c-228.8,0-415-119.8-415-267.2c0-9.7,0.8-19.3,2.3-28.6c1.2-7.2,3-14.5,4.9-21.6c14-47.1,47.2-89.9,94.3-124.8c5.9-4.3,11.9-8.6,18.1-12.7c75.2-49.1,179.8-79.5,295.2-79.5c116.9,0,222.6,31.3,298.1,81.5c6.3,4.1,12.2,8.4,18.1,12.8c45.9,34.7,78.4,77.2,91.9,123.8c2.1,7.1,3.8,14.3,4.9,21.6c1.5,9.1,2.1,18.3,2.1,27.5C913,767.6,726.8,887.6,497.9,887.6z"/><path d="M350.3,496.6c-37.9,0-69.6,31.8-69.6,69.6c0,37.9,31.8,68.6,69.6,68.6c37.9,0,68.6-30.8,68.6-68.6C418.9,528.4,388.1,496.6,350.3,496.6z"/><path d="M650.7,496.6c-37.9,0-69.6,31.8-69.6,69.6c0,37.9,31.8,68.6,69.6,68.6s68.6-30.8,68.6-68.6C719.2,528.4,688.6,496.6,650.7,496.6z"/><path d="M499.4,803.8c-71.9,0-122.5-15.5-154.6-47.6c-4.3-4.3-4.3-11.4,0-15.6c4.3-4.3,11.4-4.3,15.6,0c27.7,27.7,73.1,41,138.8,41c6.1,0,11,4.9,11,11C510.5,798.9,505.5,803.8,499.4,803.8z"/><path d="M500.6,803.8c-6.1,0-11-4.9-11-11s4.9-11,11-11c65.8,0,111.3-13.5,138.9-41c4.3-4.3,11.4-4.3,15.6,0c4.3,4.3,4.3,11.4,0,15.6C623.1,788.2,572.5,803.8,500.6,803.8z"/></g>
</svg>