<?xml version="1.0" encoding="UTF-8" standalone="no"?>
<svg width="32px" height="30px" viewBox="0 0 32 30" version="1.1" xmlns="http://www.w3.org/2000/svg" xmlns:xlink="http://www.w3.org/1999/xlink">
    <!-- Generator: Sketch 3.7 (28169) - http://www.bohemiancoding.com/sketch -->
    <title>ic_snapchat</title>
    <desc>Created with Sketch.</desc>
    <defs></defs>
    <g id="1_NuitDebout_Home" stroke="none" stroke-width="1" fill="none" fill-rule="evenodd">
        <g id="v2_NuitDebout_Home_Desktop-HD" transform="translate(-830.000000, -1695.000000)">
            <g id="3.social" transform="translate(0.000000, 1287.000000)">
                <g id="raw2" transform="translate(252.000000, 325.000000)">
                    <g id="snapchat" transform="translate(477.000000, 83.000000)">
                        <g id="ic_snapchat" transform="translate(101.000000, 0.000000)">
                            <path d="M16.1565595,29.6688395 C16.0760656,29.6688395 15.9968558,29.6665679 15.9177446,29.6628148 L15.9175471,29.6628148 C15.8671767,29.6666667 15.8143372,29.6688395 15.7615965,29.6688395 C13.9099422,29.6688395 12.721399,28.8287407 11.5721644,28.0161975 C10.7785842,27.4554074 10.0297446,26.9261235 9.14737428,26.7791605 C8.71685576,26.7078519 8.28831255,26.6717037 7.87409033,26.6717037 C7.12801625,26.6717037 6.53947304,26.7868642 6.10974465,26.8709136 C5.84860885,26.9219753 5.6233249,26.9659259 5.4521644,26.9659259 C5.2733002,26.9659259 5.07942366,26.9272099 4.99527551,26.6394074 C4.92199156,26.3900247 4.86905329,26.1485432 4.81818909,25.914963 C4.68692983,25.313679 4.59369527,24.944 4.34174465,24.905284 C1.40485576,24.4516543 0.564263167,23.8330864 0.376905143,23.3941728 C0.350337241,23.3314568 0.33522613,23.2685432 0.331670575,23.206321 C0.322090328,23.0377284 0.441596501,22.8887901 0.608213785,22.8616296 C5.12288045,22.1181235 7.14737428,17.5039012 7.23142366,17.3079506 C7.23369527,17.3025185 7.2361644,17.297284 7.23863354,17.2918519 C7.51497922,16.7319506 7.56910267,16.2458272 7.40001625,15.8474074 C7.09018909,15.1172346 6.07971996,14.7963457 5.41088045,14.5841975 C5.24722613,14.5324444 5.09206564,14.4834568 4.96969527,14.4350617 C3.63497922,13.9074568 3.52396687,13.3658272 3.57631255,13.0897778 C3.66579403,12.6194568 4.29443601,12.2916543 4.80278169,12.2916543 C4.94213971,12.2916543 5.06490514,12.3163457 5.16811502,12.3645432 C5.76851008,12.6458272 6.30964588,12.7883457 6.77651008,12.7883457 C7.42164588,12.7883457 7.70322613,12.5172346 7.73769527,12.481679 C7.7213002,12.1760988 7.70095453,11.8569877 7.68011502,11.5277037 C7.54569527,9.39318519 7.37907798,6.74103704 8.05433724,5.22716049 C10.0782385,0.689185185 14.3700903,0.336691358 15.6372508,0.336691358 C15.6697446,0.336691358 16.1928064,0.331061728 16.1928064,0.331061728 L16.2678681,0.330765432 C17.5379916,0.330765432 21.8392261,0.683950617 23.8642138,5.22439506 C24.5396706,6.73906173 24.3725595,9.39358025 24.2379422,11.5264198 L24.2323126,11.6191605 C24.2136459,11.9161481 24.1956706,12.2048395 24.1805595,12.4811852 C24.2128558,12.5140741 24.4718187,12.7634568 25.0567076,12.7858765 L25.057399,12.7858765 C25.5018434,12.7688889 26.0126582,12.6271605 26.5732508,12.3645432 C26.7375965,12.2878025 26.9200163,12.2716049 27.0442632,12.2716049 C27.2339916,12.2716049 27.4262879,12.3083457 27.5859916,12.3750123 L27.5956706,12.378963 C28.0491027,12.5396543 28.3461891,12.8574815 28.3525101,13.1895309 C28.358436,13.502321 28.11972,13.9724444 26.9485595,14.4350617 C26.8271767,14.4827654 26.6720163,14.5320494 26.5077693,14.5841975 C25.8381397,14.796642 24.8280656,15.1172346 24.518436,15.8473086 C24.3491521,16.2455309 24.4033743,16.7312593 24.6796212,17.2915556 C24.6820903,17.2969877 24.6848558,17.3022222 24.6869298,17.3079506 C24.7709792,17.5037037 26.7936953,22.116642 31.310436,22.8609383 C31.4771521,22.8884938 31.5962632,23.0372346 31.587078,23.2059259 C31.5833249,23.2692346 31.5679175,23.3329383 31.5409545,23.3948642 C31.3545842,23.8306173 30.5146829,24.4483951 27.5768064,24.902321 C27.3368064,24.9391605 27.2437693,25.2519506 27.1005595,25.9077531 C27.0485101,26.1464691 26.9957693,26.3808395 26.9231767,26.6274568 C26.8605595,26.8413827 26.7272261,26.9415309 26.5029298,26.9415309 L26.4663866,26.9415309 C26.3108311,26.9415309 26.0894977,26.913679 25.8090039,26.8585679 C25.3116212,26.761284 24.7539916,26.6717037 24.0444607,26.6717037 C23.6301397,26.6717037 23.201399,26.7078519 22.7705842,26.7791605 C21.8892014,26.9261235 21.1408558,27.4544198 20.348757,28.014321 C19.1971521,28.8287407 18.0088064,29.6688395 16.1565595,29.6688395" id="Fill-4" fill="#FFFFFF"></path>
                            <path d="M16.2678681,0 L16.2665842,0 C16.2390286,0 16.2131521,0 16.1885595,0.00049382716 C16.1885595,0.00049382716 15.6769545,0.00562962963 15.6362632,0.00562962963 C14.3196212,0.00562962963 9.85720144,0.372444444 7.75191749,5.09254321 C7.04386811,6.68049383 7.21364588,9.37748148 7.34974465,11.5446914 C7.36574465,11.8002963 7.38283107,12.0655802 7.39744835,12.3218765 C7.28851008,12.3822222 7.0895965,12.457284 6.77651008,12.457284 C6.35863354,12.457284 5.86470761,12.3253333 5.30865823,12.0646914 C5.16100391,11.9955556 4.99083107,11.9609877 4.80278169,11.9609877 C4.15152243,11.9609877 3.37255946,12.3894321 3.25127551,13.0280494 C3.16386811,13.4879012 3.3695965,14.158716 4.84791749,14.7426173 C4.98134959,14.795358 5.14174465,14.8461235 5.31112736,14.8996543 C5.92179403,15.0936296 6.84495453,15.3865679 7.09552243,15.9766914 C7.22520144,16.2823704 7.17344835,16.6758519 6.94194218,17.1457778 C6.93690514,17.1564444 6.93176934,17.1669136 6.92722613,17.1778765 C6.84594218,17.3669136 4.8921644,21.8208395 0.55448539,22.5349136 C0.22085576,22.5899259 -0.0174652277,22.8875062 0.0010039081,23.2249877 C0.00673230316,23.3253333 0.0305347723,23.425284 0.071621192,23.5222716 C0.397152056,24.283358 1.77068292,24.8410864 4.27112736,25.2291358 C4.35468292,25.3422222 4.44149774,25.7414321 4.4947323,25.9847901 C4.54697922,26.2247901 4.60090514,26.4722963 4.67774465,26.7334321 C4.75310267,26.9901235 4.94885576,27.2969877 5.4521644,27.2969877 C5.65542366,27.2969877 5.8953249,27.2500741 6.17295453,27.1955556 C6.58954712,27.1141728 7.16001625,27.0027654 7.87409033,27.0027654 C8.27013971,27.0027654 8.68060885,27.0371358 9.09394218,27.105679 C9.90075699,27.2400988 10.5863866,27.7247407 11.3801644,28.2858272 C12.5170533,29.089679 13.8045595,29.9997037 15.7615965,29.9997037 C15.8153249,29.9997037 15.8694484,29.9981235 15.9228805,29.9941728 C15.9863866,29.9969383 16.0688558,29.9997037 16.1565595,29.9997037 C18.1141891,29.9997037 19.4014977,29.0895802 20.5375965,28.2861235 C21.3331521,27.7242469 22.0182879,27.2398025 22.8251027,27.105679 C23.2377446,27.0371358 23.6483126,27.0027654 24.0444607,27.0027654 C24.7257446,27.0027654 25.2648064,27.0893827 25.7455965,27.1833086 C26.0468311,27.2422716 26.2893002,27.2722963 26.4663866,27.2722963 L26.4849545,27.2725926 L26.5029298,27.2725926 C26.8746829,27.2725926 27.1369051,27.0761481 27.2410039,26.7197037 C27.3163619,26.4639012 27.3703866,26.2228148 27.4238187,25.9786667 C27.476757,25.7360988 27.5633743,25.3385679 27.6466335,25.2262716 C30.1477693,24.8379259 31.5209051,24.2810864 31.8457446,23.5232593 C31.8875224,23.4262716 31.9115224,23.3255309 31.9172508,23.2242963 C31.9360163,22.8866173 31.6974977,22.5894321 31.3641644,22.5346173 C27.0244113,21.819358 25.0723126,17.3664198 24.9912261,17.1775802 C24.9865842,17.166716 24.9816459,17.1558519 24.9763126,17.1453827 C24.7446088,16.6755556 24.6933496,16.2823704 24.8229298,15.9766914 C25.0733002,15.3865679 25.9960656,15.0936296 26.6068311,14.9000494 C26.7776953,14.8458272 26.9382879,14.7946667 27.0703372,14.7426173 C28.1522138,14.315358 28.6949298,13.7906173 28.683473,13.1830123 C28.6740903,12.7057778 28.302436,12.28 27.7116212,12.0689383 L27.7098434,12.0683457 C27.5111274,11.9858765 27.2752755,11.9408395 27.0442632,11.9408395 C26.8863372,11.9408395 26.6520656,11.9623704 26.4332014,12.0646914 C25.9186335,12.3058765 25.456115,12.4369383 25.057399,12.4548148 C24.7930039,12.4424691 24.6199669,12.3758025 24.5213002,12.3214815 C24.5338434,12.1015309 24.5478681,11.8751605 24.5627817,11.6386173 L24.5683126,11.5466667 C24.7052014,9.37797531 24.875078,6.67861728 24.1663372,5.08958025 C22.0601644,0.367308642 17.5882632,0 16.2678681,0 L16.2678681,0 Z M16.2678681,0.661728395 C17.4701397,0.66182716 21.6107817,0.984395062 23.5621891,5.35920988 C24.2044607,6.79940741 24.0402138,9.40898765 23.9079669,11.5055802 C23.8870286,11.8380247 23.8666829,12.1601975 23.8501891,12.4684444 L23.8429792,12.6005926 L23.9315718,12.6990617 C23.9669298,12.7388642 24.3011521,13.0878025 25.0437693,13.116642 L25.0562138,13.1169383 L25.0683619,13.116642 C25.5593249,13.0981728 26.1127076,12.9458765 26.713794,12.6641975 C26.8019916,12.622716 26.91972,12.6025679 27.0442632,12.6025679 C27.1864854,12.6025679 27.3372014,12.6292346 27.4616459,12.681679 L27.4803126,12.6891852 C27.7951767,12.7995062 28.0179916,13.0079012 28.0217446,13.1959506 C28.0236212,13.3029136 27.9436212,13.6861235 26.8269792,14.1271111 C26.7179422,14.1703704 26.5740409,14.2159012 26.4076212,14.2684444 C25.6810039,14.4994568 24.5832261,14.8474074 24.2136459,15.7176296 C24.0054484,16.2087901 24.0621397,16.7874568 24.3827323,17.4380247 C24.5147817,17.7457778 26.5884607,22.4184691 31.2565101,23.1875556 C31.2552261,23.2091852 31.2499916,23.2337778 31.2373496,23.262321 C31.1580409,23.4486914 30.6551274,24.0920494 27.5263372,24.5750123 C27.0365595,24.6505679 26.9164607,25.1990123 26.7772014,25.8373333 C26.7275224,26.0654815 26.6759669,26.2957037 26.6057446,26.5342222 C26.5845101,26.606321 26.5804607,26.6105679 26.5029298,26.6105679 L26.4663866,26.6105679 C26.3276212,26.6105679 26.1166582,26.5817284 25.8724113,26.5339259 C25.4289545,26.4472099 24.8208558,26.3409383 24.0444607,26.3409383 C23.6111767,26.3409383 23.1643619,26.3785679 22.7166582,26.4528395 C21.7592261,26.6122469 20.9802632,27.1631605 20.1552755,27.7458765 C19.0479175,28.5289877 17.9033249,29.3380741 16.1565595,29.3380741 C16.0808064,29.3380741 16.0060409,29.3356049 15.9313743,29.3320494 L15.91172,29.3310617 L15.8918681,29.3328395 C15.8490039,29.3363951 15.8058434,29.3380741 15.7615965,29.3380741 C14.0152261,29.3380741 12.8701397,28.5289877 11.7629792,27.7461728 C10.9382879,27.1631605 10.1591274,26.6122469 9.2018928,26.4528395 C8.75399156,26.3785679 8.30747304,26.3409383 7.87409033,26.3409383 C7.0978928,26.3409383 6.48979403,26.4591605 6.04604095,26.5459753 C5.8018928,26.5939753 5.59063354,26.634963 5.4521644,26.634963 C5.33897922,26.634963 5.33660885,26.6284444 5.31270761,26.5466667 C5.24258416,26.3079506 5.19112736,26.0716049 5.14134959,25.8436543 C5.00199156,25.2054321 4.88139897,24.6536296 4.39221378,24.5781728 C1.26312736,24.0950123 0.760510081,23.4500741 0.681102674,23.2640988 C0.668460698,23.2352593 0.66322613,23.2100741 0.662139711,23.1881481 C5.32979403,22.4190617 7.40347304,17.746963 7.53552243,17.438321 C7.85611502,16.7874568 7.91310267,16.2091852 7.70470761,15.718321 C7.33542366,14.8478025 6.23754712,14.4994568 5.51083107,14.2684444 C5.34431255,14.2160988 5.20051008,14.1703704 5.09137428,14.1271111 C4.14796687,13.7545679 3.85809033,13.3792593 3.90154712,13.1517037 C3.95152243,12.8893827 4.40613971,12.622716 4.80278169,12.622716 C4.89206564,12.622716 4.96999156,12.6369383 5.02786811,12.6641975 C5.67231255,12.9657284 6.26095453,13.1192099 6.77651008,13.1192099 C7.58796687,13.1192099 7.94915206,12.7416296 7.98747304,12.6988642 L8.07547304,12.6005926 L8.06826317,12.4688395 C8.05176934,12.1611852 8.03152243,11.8391111 8.01048539,11.5068642 C7.87843601,9.4102716 7.71418909,6.80246914 8.35655946,5.36197531 C10.3003619,1.00325926 14.420757,0.66745679 15.6372508,0.66745679 C15.6672755,0.66745679 16.1959669,0.662222222 16.1959669,0.662222222 C16.2186829,0.66182716 16.2424854,0.661728395 16.2678681,0.661728395 L16.2678681,0.661728395 Z" id="Fill-5" fill="#0B0C0A"></path>
                        </g>
                    </g>
                </g>
            </g>
        </g>
    </g>
</svg>