<?xml version="1.0" encoding="UTF-8" standalone="no"?>
<svg width="32px" height="30px" viewBox="0 0 32 30" version="1.1" xmlns="http://www.w3.org/2000/svg" xmlns:xlink="http://www.w3.org/1999/xlink">
    <!-- Generator: Sketch 3.7 (28169) - http://www.bohemiancoding.com/sketch -->
    <title>ic_github_dark</title>
    <desc>Created with Sketch.</desc>
    <defs></defs>
    <g id="1_NuitDebout_Home" stroke="none" stroke-width="1" fill="none" fill-rule="evenodd">
        <g id="v2_NuitDebout_Home_Desktop-HD" transform="translate(-1305.000000, -1698.000000)" fill="#424242">
            <g id="3.social" transform="translate(0.000000, 1287.000000)">
                <g id="raw2" transform="translate(252.000000, 325.000000)">
                    <g id="github" transform="translate(951.000000, 86.000000)">
                        <g id="ic_github_dark" transform="translate(102.000000, 0.000000)">
                            <path d="M16,0 C7.63076923,0 0.861538462,6.76923077 0.861538462,15.1384615 C0.861538462,21.7846154 5.16923077,27.4461538 11.2,29.5384615 C11.9384615,29.6615385 12.1846154,29.1692308 12.1846154,28.8 L12.1846154,26.2153846 C8,27.0769231 7.13846154,24.2461538 7.13846154,24.2461538 C6.4,22.5230769 5.41538462,22.0307692 5.41538462,22.0307692 C4.06153846,21.0461538 5.53846154,21.1692308 5.53846154,21.1692308 C7.01538462,21.2923077 7.87692308,22.7692308 7.87692308,22.7692308 C9.23076923,25.1076923 11.4461538,24.3692308 12.3076923,24 C12.4307692,23.0153846 12.8,22.4 13.2923077,22.0307692 C9.96923077,21.6615385 6.4,20.3076923 6.4,14.5230769 C6.4,12.9230769 7.01538462,11.5692308 8,10.4615385 C7.75384615,9.84615385 7.26153846,8.36923077 8,6.27692308 C8,6.27692308 9.23076923,5.90769231 12.1846154,7.87692308 C13.4153846,7.50769231 14.7692308,7.38461538 16,7.38461538 C17.2307692,7.38461538 18.5846154,7.50769231 19.8153846,7.87692308 C22.6461538,5.90769231 24,6.27692308 24,6.27692308 C24.8615385,8.36923077 24.2461538,9.84615385 24.1230769,10.3384615 C25.1076923,11.4461538 25.7230769,12.8 25.7230769,14.4 C25.7230769,20.1846154 22.1538462,21.5384615 18.8307692,21.9076923 C19.3230769,22.4 19.8153846,23.2615385 19.8153846,24.7384615 L19.8153846,28.9230769 C19.8153846,29.2923077 20.0615385,29.7846154 20.8,29.6615385 C26.8307692,27.6923077 31.1384615,22.0307692 31.1384615,15.2615385 C31.1384615,6.76923077 24.3692308,0 16,0 L16,0 Z" id="Shape"></path>
                        </g>
                    </g>
                </g>
            </g>
        </g>
    </g>
</svg>