<?xml version="1.0" encoding="UTF-8" standalone="no"?>
<svg width="26px" height="32px" viewBox="0 0 26 32" version="1.1" xmlns="http://www.w3.org/2000/svg" xmlns:xlink="http://www.w3.org/1999/xlink">
    <!-- Generator: Sketch 3.7 (28169) - http://www.bohemiancoding.com/sketch -->
    <title>ic_periscope</title>
    <desc>Created with Sketch.</desc>
    <defs></defs>
    <g id="1_NuitDebout_Home" stroke="none" stroke-width="1" fill="none" fill-rule="evenodd">
        <g id="v2_NuitDebout_Home_Desktop-HD" transform="translate(-596.000000, -1694.000000)" fill="#3C95AE">
            <g id="3.social" transform="translate(0.000000, 1287.000000)">
                <g id="raw2" transform="translate(252.000000, 325.000000)">
                    <g id="periscope" transform="translate(240.000000, 82.000000)">
                        <g id="ic_periscope" transform="translate(104.000000, 0.000000)">
                            <path d="M12.7837774,30.6162087 C10.1734122,30.6162087 1.11296,20.3408696 1.11296,13.4514087 C1.11296,6.85690435 6.26551652,1.39130435 12.7837774,1.39130435 C18.9778643,1.39130435 24.1304209,6.85690435 24.1304209,13.4514087 C24.1304209,20.3408696 15.0699687,30.6162087 12.7837774,30.6162087 M21.5901774,4.18532174 C19.2182817,1.66594783 16.0906296,0.27826087 12.7837774,0.27826087 C5.73487304,0.27826087 -8.34782604e-05,6.18768696 -8.34782604e-05,13.4514087 C-8.34782604e-05,18.0644174 3.55358609,23.2659478 5.08151652,25.2883478 C7.32624696,28.2596174 10.6904209,31.7292522 12.7837774,31.7292522 C15.3387687,31.7292522 19.716647,25.9414261 20.2074991,25.2813913 C21.7215165,23.2456348 25.2434643,18.017113 25.2434643,13.4514087 C25.2434643,9.97843478 23.9459339,6.68772174 21.5901774,4.18532174" id="Fill-1"></path>
                            <path d="M10.9656487,6.07521391 C11.93984,6.4948313 12.6215791,7.45510957 12.6215791,8.57371826 C12.6215791,10.0782748 11.38944,11.2981704 9.86957913,11.2981704 C8.34971826,11.2981704 7.11757913,10.0782748 7.11757913,8.57371826 C6.39493565,9.44801391 5.96140522,10.5215443 5.68314435,11.7086052 C5.68314435,12.1207096 5.59493565,12.5456139 5.59493565,12.9822052 C5.59493565,16.6140661 8.74206609,19.7189009 12.8110748,19.7189009 C16.4799443,19.7189009 19.6306922,16.6140661 19.6306922,12.9822052 C19.6306922,9.39876174 17.09184,6.54797913 14.0309704,5.96196174 C13.7527096,5.88933565 11.5552835,5.92801391 10.9656487,6.07521391 Z" id="Fill-4"></path>
                        </g>
                    </g>
                </g>
            </g>
        </g>
    </g>
</svg>