<?xml version="1.0" encoding="UTF-8" standalone="no"?>
<svg width="24px" height="21px" viewBox="0 0 24 21" version="1.1" xmlns="http://www.w3.org/2000/svg" xmlns:xlink="http://www.w3.org/1999/xlink">
    <!-- Generator: Sketch 3.7.1 (28215) - http://www.bohemiancoding.com/sketch -->
    <title>ic_reddit</title>
    <desc>Created with Sketch.</desc>
    <defs></defs>
    <g id="1_NuitDebout_Home" stroke="none" stroke-width="1" fill="none" fill-rule="evenodd">
        <g id="v3_NuitDebout_Home_Desktop-HD" transform="translate(-1246.000000, -2138.000000)" fill="#424242">
            <g id="3.social" transform="translate(-67.000000, 2022.000000)">
                <g id="raw1" transform="translate(0.000000, 81.000000)">
                    <g id="reddit" transform="translate(1208.000000, 35.000000)">
                        <g id="ic_reddit" transform="translate(105.000000, 0.000000)">
                            <path d="M10.2165,11.6971154 C10.2165,10.7627308 9.45888462,10.0046538 8.52403846,10.0046538 C7.58826923,10.0046538 6.83065385,10.7627308 6.83065385,11.6971154 C6.83065385,12.6324231 7.58826923,13.3900385 8.52403846,13.3900385 C9.45888462,13.3900385 10.2165,12.6324231 10.2165,11.6971154" id="Fill-4"></path>
                            <path d="M15.5913462,10.0046538 C14.6555769,10.0046538 13.8979615,10.7627308 13.8979615,11.6971154 C13.8979615,12.6324231 14.6555769,13.3900385 15.5913462,13.3900385 C16.5261923,13.3900385 17.2838077,12.6324231 17.2838077,11.6971154 C17.2838077,10.7627308 16.5261923,10.0046538 15.5913462,10.0046538" id="Fill-6"></path>
                            <path d="M15.3051231,15.6751615 C15.2947385,15.6850846 14.2652769,16.6990846 11.9174308,16.6990846 C9.60973846,16.6990846 8.68850769,15.7197 8.66381538,15.6927 C8.50781538,15.5138538 8.23689231,15.4940077 8.0562,15.6481615 C7.87458462,15.8032385 7.85335385,16.0767 8.00889231,16.2583154 C8.05435385,16.3116231 9.15812308,17.5647 11.9174308,17.5647 C14.6628923,17.5647 15.8776615,16.3287 15.9279692,16.2760846 C16.0920462,16.1041615 16.0858154,15.8337 15.9157385,15.6680077 C15.7449692,15.5016231 15.4715077,15.5057769 15.3051231,15.6751615" id="Fill-8"></path>
                            <path d="M22.3757769,11.2638231 C21.9682385,10.1418231 21.1688538,9.12228462 20.0803154,8.27351538 C20.3953154,8.0529 20.7687,7.93266923 21.1610077,7.93266923 C22.2029308,7.93266923 23.0503154,8.78005385 23.0503154,9.82220769 C23.0503154,10.3845923 22.7969308,10.9084385 22.3757769,11.2638231 M11.9373923,19.3169769 C6.48939231,19.3169769 2.05746923,16.4702077 2.05746923,12.9708231 C2.05746923,9.47143846 6.48939231,6.62466923 11.9373923,6.62466923 C17.3851615,6.62466923 21.8170846,9.47143846 21.8170846,12.9708231 C21.8170846,16.4702077 17.3851615,19.3169769 11.9373923,19.3169769 M0.865315385,9.82220769 C0.865315385,8.78005385 1.71316154,7.93266923 2.75485385,7.93266923 C3.13816154,7.93266923 3.50416154,8.0469 3.81454615,8.25805385 C2.72439231,9.10313077 1.92131538,10.1185154 1.50823846,11.2368231 C1.10623846,10.8819 0.865315385,10.3702846 0.865315385,9.82220769 M20.2787769,0.865361538 C21.0423923,0.865361538 21.6633923,1.48636154 21.6633923,2.24997692 C21.6633923,3.01359231 21.0423923,3.63459231 20.2787769,3.63459231 C19.5153923,3.63459231 18.8941615,3.01359231 18.8941615,2.24997692 C18.8941615,1.48636154 19.5153923,0.865361538 20.2787769,0.865361538 M23.9157,9.82220769 C23.9157,8.30305385 22.6799308,7.06728462 21.1610077,7.06728462 C20.4850846,7.06728462 19.8479308,7.31166923 19.3450846,7.75428462 C17.5536231,6.60805385 15.1767,5.87120769 12.5484692,5.77174615 L14.1151615,1.31928462 L18.0290077,2.25505385 C18.0317769,3.49359231 19.0397769,4.49997692 20.2787769,4.49997692 C21.5191615,4.49997692 22.5287769,3.49082308 22.5287769,2.24997692 C22.5287769,1.00913077 21.5191615,-2.30769228e-05 20.2787769,-2.30769228e-05 C19.3370077,-2.30769228e-05 18.5300077,0.581976923 18.1949308,1.40466923 L13.5580846,0.296053846 L11.6334692,5.76459231 C8.89562308,5.81582308 6.41185385,6.55728462 4.5537,7.73905385 C4.05339231,7.3059 3.42293077,7.06728462 2.75485385,7.06728462 C1.23593077,7.06728462 -6.92307694e-05,8.30305385 -6.92307694e-05,9.82220769 C-6.92307694e-05,10.7616692 0.483623077,11.6279769 1.26685385,12.1333615 C1.21931538,12.4084385 1.19208462,12.6874385 1.19208462,12.9708231 C1.19208462,16.9472077 6.01216154,20.1823615 11.9373923,20.1823615 C17.8626231,20.1823615 22.6824692,16.9472077 22.6824692,12.9708231 C22.6824692,12.6957462 22.6573154,12.4245923 22.6123154,12.1573615 C23.4170077,11.6556692 23.9157,10.7764385 23.9157,9.82220769" id="Fill-1"></path>
                        </g>
                    </g>
                </g>
            </g>
        </g>
    </g>
</svg>