<?xml version="1.0" encoding="utf-8"?>
<!-- Generator: Adobe Illustrator 19.2.1, SVG Export Plug-In . SVG Version: 6.00 Build 0)  -->
<svg version="1.1" id="Calque_1" xmlns="http://www.w3.org/2000/svg" xmlns:xlink="http://www.w3.org/1999/xlink" x="0px" y="0px"
	 viewBox="0 0 32 30" style="enable-background:new 0 0 32 30;" xml:space="preserve">
<title>ic_snapchat</title>
<desc>Created with Sketch.</desc>
<g id="Outline_Color_copy_2">
	<path d="M16.1,26.4l-0.2,0c0,0,0,0-0.1,0c-1.4,0-2.3-0.6-3.1-1.2c-0.5-0.4-0.9-0.7-1.4-0.7c-0.7-0.1-1.4,0-1.8,0.1
		c-0.2,0-0.4,0.1-0.5,0.1c-0.6,0-0.7-0.4-0.8-0.6c0-0.2-0.1-0.3-0.1-0.5c0-0.1-0.1-0.2-0.1-0.3c-1.7-0.3-2.6-0.7-2.8-1.3
		c0-0.1-0.1-0.2-0.1-0.3c0-0.4,0.2-0.7,0.6-0.7c2.7-0.4,4-3.3,4-3.4c0.1-0.2,0.2-0.4,0.1-0.6c-0.1-0.3-0.7-0.5-1-0.6
		c-0.1,0-0.2-0.1-0.3-0.1c-1.2-0.5-1.3-1.1-1.2-1.4c0.1-0.8,1.2-1.1,1.8-0.8c0.4,0.2,0.8,0.3,1,0.2l0-0.3c-0.1-1.5-0.2-3.3,0.3-4.4
		C11.8,6.2,14.9,6,15.8,6l0.4,0c1,0,4.1,0.3,5.5,3.5c0.5,1.1,0.4,2.9,0.3,4.4l0,0.3c0,0,0.1,0,0.1,0c0.2,0,0.5-0.1,0.8-0.2
		c0.3-0.1,0.7-0.1,1.1,0c0.5,0.2,0.8,0.6,0.8,1c0,0.5-0.4,1-1.2,1.3c-0.1,0-0.2,0.1-0.3,0.1c-0.4,0.1-1,0.3-1.1,0.6
		c-0.1,0.2,0,0.4,0.1,0.5c0.1,0.2,1.3,3,4,3.4c0.4,0.1,0.6,0.4,0.6,0.7c0,0.1,0,0.2-0.1,0.3c-0.3,0.6-1.2,1-2.8,1.3
		c0,0.1-0.1,0.2-0.1,0.3c0,0.2-0.1,0.3-0.1,0.5c-0.1,0.4-0.4,0.6-0.8,0.6c-0.2,0-0.3,0-0.6-0.1c-0.4-0.1-1.1-0.2-1.8,0
		c-0.5,0.1-0.9,0.4-1.4,0.7C18.4,25.7,17.5,26.4,16.1,26.4z M16,25.4l0.1,0c1.1,0,1.8-0.5,2.5-1c0.6-0.4,1.1-0.8,1.8-0.9
		c0.8-0.1,1.6-0.1,2.2,0.1c0.1,0,0.1,0,0.2,0c0-0.1,0-0.2,0.1-0.3c0.1-0.5,0.2-1,0.7-1.1c1-0.2,1.6-0.3,1.9-0.5
		c-2.9-0.8-4.1-3.7-4.2-3.8c-0.2-0.5-0.3-1-0.1-1.4c0.3-0.7,1.1-1,1.6-1.1c0.1,0,0.2-0.1,0.3-0.1c0.4-0.2,0.6-0.3,0.6-0.4
		c0,0,0,0,0,0c0,0-0.1,0-0.2-0.1c-0.1-0.1-0.3,0-0.3,0c-0.4,0.2-0.8,0.3-1.2,0.3c-0.6,0-0.9-0.3-1-0.4l-0.1-0.2l0-0.8
		c0.1-1.3,0.2-3.1-0.2-4C19.6,7.2,17,7,16.2,7l-0.4,0c-0.8,0-3.3,0.2-4.6,2.9c-0.4,0.9-0.3,2.6-0.2,3.9l0.1,0.9l-0.2,0.2
		c-0.1,0.1-0.4,0.4-1,0.4c-0.4,0-0.8-0.1-1.3-0.3c0,0,0,0,0,0c-0.2,0-0.3,0.1-0.3,0.1c0,0,0.2,0.2,0.6,0.3c0.1,0,0.2,0.1,0.3,0.1
		c0.5,0.2,1.3,0.4,1.6,1.1c0.2,0.4,0.1,0.9-0.1,1.4c-0.1,0.3-1.4,3.1-4.2,3.8c0.3,0.1,0.9,0.3,1.9,0.5c0.5,0.1,0.6,0.6,0.7,1.1
		c0,0.1,0,0.2,0.1,0.3c0.1,0,0.1,0,0.2,0c0.5-0.1,1.3-0.2,2.2-0.1c0.7,0.1,1.3,0.5,1.8,0.9c0.7,0.5,1.4,1,2.5,1L16,25.4z M5.9,21.9
		C5.9,21.9,5.9,21.9,5.9,21.9C5.9,21.9,5.9,21.9,5.9,21.9z M26.1,21.9C26.1,21.9,26.1,21.9,26.1,21.9C26.1,21.9,26.1,21.9,26.1,21.9
		z"/>
</g>
</svg>
