<?xml version="1.0" encoding="UTF-8" standalone="no"?>
<svg width="19px" height="32px" viewBox="0 0 19 32" version="1.1" xmlns="http://www.w3.org/2000/svg" xmlns:xlink="http://www.w3.org/1999/xlink">
    <!-- Generator: Sketch 3.7 (28169) - http://www.bohemiancoding.com/sketch -->
    <title>ic_tumblr</title>
    <desc>Created with Sketch.</desc>
    <defs></defs>
    <g id="1_NuitDebout_Home" stroke="none" stroke-width="1" fill="none" fill-rule="evenodd">
        <g id="v2_NuitDebout_Home_Desktop-HD" transform="translate(-356.000000, -1695.000000)" fill="#32506D">
            <g id="3.social" transform="translate(0.000000, 1287.000000)">
                <g id="raw2" transform="translate(252.000000, 325.000000)">
                    <g id="tumblr" transform="translate(2.000000, 83.000000)">
                        <path d="M120.156028,13.6170213 L113.347518,13.6170213 L113.347518,22.4680851 C113.347518,24.0567376 113.574468,24.964539 115.843972,24.964539 L120.156028,24.964539 L120.156028,31.7730496 C120.156028,31.7730496 117.886525,32 115.390071,32 C109.489362,32 106.539007,28.3687943 106.539007,24.2836879 L106.539007,13.6170213 L102,13.6170213 L102,7.26241135 C107.446809,6.80851064 107.900709,2.72340426 108.35461,0 L113.347518,0 L113.347518,6.80851064 L120.156028,6.80851064 L120.156028,13.6170213 L120.156028,13.6170213 Z" id="ic_tumblr"></path>
                    </g>
                </g>
            </g>
        </g>
    </g>
</svg>