<?xml version="1.0" encoding="UTF-8" standalone="no"?>
<svg
   xmlns:dc="http://purl.org/dc/elements/1.1/"
   xmlns:cc="http://creativecommons.org/ns#"
   xmlns:rdf="http://www.w3.org/1999/02/22-rdf-syntax-ns#"
   xmlns:svg="http://www.w3.org/2000/svg"
   xmlns="http://www.w3.org/2000/svg"
   id="svg2"
   version="1.1"
   viewBox="0 0 24 24"
   height="24px"
   width="24px">
  <metadata
     id="metadata18">
    <rdf:RDF>
      <cc:Work
         rdf:about="">
        <dc:format>image/svg+xml</dc:format>
        <dc:type
           rdf:resource="http://purl.org/dc/dcmitype/StillImage" />
        <dc:title>ic_twitter</dc:title>
      </cc:Work>
    </rdf:RDF>
  </metadata>
  <!-- Generator: Sketch 3.6.1 (26313) - http://www.bohemiancoding.com/sketch -->
  <title
     id="title4">ic_twitter</title>
  <desc
     id="desc6">Created with Sketch.</desc>
  <defs
     id="defs8" />
  <path
     id="Combined-Shape"
     d="M 12 0 C 5.372583 0 0 5.372583 0 12 C 0 18.627417 5.372583 24 12 24 C 18.627417 24 24 18.627417 24 12 C 24 5.372583 18.627417 0 12 0 z M 14.324219 6.75 C 15.028797 6.75 15.661968 7.0662794 16.113281 7.5742188 L 16.113281 7.5722656 C 16.508625 7.5722656 17.309688 7.2238593 17.658203 6.984375 C 17.525641 7.5322031 16.987625 8.221125 16.625 8.4316406 C 17.190547 8.3715469 17.797828 8.1318124 18 8.0117188 C 17.650594 8.6357184 17.162156 9.1083754 16.798828 9.375 C 16.798828 9.388922 16.800781 9.4028436 16.800781 9.4160156 C 16.800781 9.4262816 16.798828 9.4374996 16.798828 9.4492188 C 16.798828 9.4536247 16.800781 9.4596833 16.800781 9.4648438 C 16.96775 13.764875 13.867031 17.25 9.8730469 17.25 C 8.4675938 17.25 7.1390156 16.817407 6 16.070312 C 7.676625 16.356719 9.0307032 15.458629 9.4277344 14.964844 C 8.31375 14.964844 7.2958749 13.939453 7.2167969 13.154297 C 7.4415156 13.191707 7.9544842 13.239531 8.2460938 13.070312 C 6.7343276 12.624301 6.3183595 11.394781 6.3359375 10.466797 C 6.5885938 10.731215 7.127203 10.791768 7.4179688 10.767578 C 6.5662031 10.200625 5.9179688 8.6434531 6.6679688 7.2441406 C 7.8896718 8.9576094 10.057639 9.9584824 11.912109 10.009766 C 11.871049 9.8186543 11.847656 9.6203906 11.847656 9.4160156 C 11.847656 7.9434844 12.957625 6.75 14.324219 6.75 z "
     style="fill:#37474f;fill-rule:evenodd;stroke:none;stroke-width:1" />
</svg>
