<?xml version="1.0" encoding="UTF-8" standalone="no"?>
<svg width="24px" height="24px" viewBox="0 0 24 24" version="1.1" xmlns="http://www.w3.org/2000/svg" xmlns:xlink="http://www.w3.org/1999/xlink">
    <!-- Generator: Sketch 3.7.1 (28215) - http://www.bohemiancoding.com/sketch -->
    <title>ic_wiki_dark</title>
    <desc>Created with Sketch.</desc>
    <defs></defs>
    <g id="1_NuitDebout_Home" stroke="none" stroke-width="1" fill="none" fill-rule="evenodd">
        <g id="v3_NuitDebout_Home_Desktop-HD" transform="translate(-1404.000000, -19.000000)" fill="#37474F">
            <g id="Header">
                <g id="nav">
                    <g id="ic_wiki_dark" transform="translate(1404.000000, 19.000000)">
                        <path d="M20,8.5507 C20,8.6477 19.924,8.7277 19.823,8.7277 L18.865,8.7277 L14.511,17.9947 C14.483,18.0537 14.42,18.0957 14.351,18.0957 L14.348,18.0957 C14.282,18.0957 14.22,18.0577 14.191,17.9977 L12.125,13.9007 L9.896,18.0017 C9.861,18.0607 9.806,18.0957 9.733,18.0957 C9.667,18.0957 9.604,18.0537 9.577,17.9947 L5.178,8.7277 L4.181,8.7277 C4.08,8.7277 4,8.6477 4,8.5507 L4,8.0817 C4,7.9847 4.08,7.9047 4.181,7.9047 L7.73,7.9047 C7.827,7.9047 7.907,7.9847 7.907,8.0817 L7.907,8.5507 C7.907,8.6477 7.827,8.7277 7.73,8.7277 L6.965,8.7277 L10.004,15.7347 L11.584,12.7827 L9.58,8.7307 L9.098,8.7307 C9,8.7307 8.921,8.6507 8.921,8.5507 L8.921,8.0817 C8.921,7.9847 9,7.9047 9.098,7.9047 L11.726,7.9047 C11.823,7.9047 11.903,7.9847 11.903,8.0817 L11.903,8.5507 C11.903,8.6507 11.823,8.7307 11.726,8.7307 L11.26,8.7307 L12.413,11.2517 L13.788,8.7307 L12.945,8.7307 C12.844,8.7307 12.768,8.6507 12.768,8.5507 L12.768,8.0817 C12.768,7.9847 12.844,7.9047 12.945,7.9047 L15.497,7.9047 C15.597,7.9047 15.674,7.9847 15.674,8.0817 L15.674,8.5507 C15.674,8.6507 15.597,8.7307 15.497,8.7307 L14.938,8.7307 L12.934,12.3697 L14.566,15.7237 L17.719,8.7307 L16.719,8.7307 C16.622,8.7307 16.542,8.6507 16.542,8.5507 L16.542,8.0817 C16.542,7.9847 16.622,7.9047 16.719,7.9047 L19.823,7.9047 C19.924,7.9047 20,7.9847 20,8.0817 L20,8.5507 Z M12,-0.0003 C5.373,-0.0003 0,5.3727 0,11.9997 C0,18.6277 5.373,23.9997 12,23.9997 C18.627,23.9997 24,18.6277 24,11.9997 C24,5.3727 18.627,-0.0003 12,-0.0003 L12,-0.0003 Z" id="Fill-1"></path>
                    </g>
                </g>
            </g>
        </g>
    </g>
</svg>