<?xml version="1.0" encoding="UTF-8" standalone="no"?>
<svg width="32px" height="23px" viewBox="0 0 32 23" version="1.1" xmlns="http://www.w3.org/2000/svg" xmlns:xlink="http://www.w3.org/1999/xlink">
    <!-- Generator: Sketch 3.7 (28169) - http://www.bohemiancoding.com/sketch -->
    <title>Fill 1</title>
    <desc>Created with Sketch.</desc>
    <defs></defs>
    <g id="1_NuitDebout_Home" stroke="none" stroke-width="1" fill="none" fill-rule="evenodd">
        <g id="v2_NuitDebout_Home_Desktop-HD" transform="translate(-830.000000, -1465.000000)" fill="#BB0000">
            <g id="3.social" transform="translate(0.000000, 1287.000000)">
                <g id="raw1" transform="translate(0.000000, 88.000000)">
                    <g id="youtube" transform="translate(729.000000, 90.000000)">
                        <g id="ic_youtube" transform="translate(101.000000, 0.000000)">
                            <path d="M12.6964,15.4041 L12.6954,6.4131 L21.3414,10.9241 L12.6964,15.4041 Z M31.6804,4.8551 C31.6804,4.8551 31.3674,2.6501 30.4084,1.6791 C29.1914,0.4051 27.8274,0.3981 27.2024,0.3241 C22.7244,0.0001 16.0074,0.0001 16.0074,0.0001 L15.9934,0.0001 C15.9934,0.0001 9.2764,0.0001 4.7984,0.3241 C4.1724,0.3981 2.8094,0.4051 1.5914,1.6791 C0.6324,2.6501 0.3204,4.8551 0.3204,4.8551 C0.3204,4.8551 0.0004,7.4451 0.0004,10.0341 L0.0004,12.4621 C0.0004,15.0521 0.3204,17.6411 0.3204,17.6411 C0.3204,17.6411 0.6324,19.8461 1.5914,20.8171 C2.8094,22.0921 4.4084,22.0521 5.1204,22.1851 C7.6804,22.4311 16.0004,22.5071 16.0004,22.5071 C16.0004,22.5071 22.7244,22.4971 27.2024,22.1731 C27.8274,22.0981 29.1914,22.0921 30.4084,20.8171 C31.3674,19.8461 31.6804,17.6411 31.6804,17.6411 C31.6804,17.6411 32.0004,15.0521 32.0004,12.4621 L32.0004,10.0341 C32.0004,7.4451 31.6804,4.8551 31.6804,4.8551 L31.6804,4.8551 Z" id="Fill-1"></path>
                        </g>
                    </g>
                </g>
            </g>
        </g>
    </g>
</svg>