<?xml version="1.0" encoding="UTF-8" standalone="no"?>
<svg width="20px" height="28px" viewBox="0 0 20 28" version="1.1" xmlns="http://www.w3.org/2000/svg" xmlns:xlink="http://www.w3.org/1999/xlink">
    <!-- Generator: Sketch 3.7 (28169) - http://www.bohemiancoding.com/sketch -->
    <title>ic_bambuser</title>
    <desc>Created with Sketch.</desc>
    <defs>
        <path d="M1.62841129,5.12155845 L4.1937776,0.0433175895 L15.2547327,0.215598223 L18.6505455,5.95940763 L20.7165409,11.0031351 C20.7165409,11.0031351 25.6962284,18.1827422 18.3365625,26.9090016 C10.9768966,35.6352609 3.57455762,30.3601835 3.12173402,29.7990915 C2.66891043,29.2379995 1.22193667,26.9090019 1.22193667,26.9090019 L0.145182714,17.5230722 L1.62841129,5.12155845 Z" id="path-1"></path>
        <path d="M116.860133,6.37176 L113.683333,6.37176 C112.6972,6.37176 111.824133,6.92802667 111.387067,7.76456 C109.918,6.66109333 107.9476,6.08269333 105.592667,6.08269333 C103.544933,6.08269333 101.7524,6.51496 100.242267,7.36616 C99.6985333,6.71069333 98.9708,6.37149333 98.2038667,6.37149333 L95.0270667,6.37149333 C94.5377333,6.37149333 94.0676,6.50962667 93.6646667,6.75842667 C92.6774667,6.31469333 91.5382667,6.08269333 90.2905333,6.08269333 C88.8094667,6.08269333 87.4278667,6.43762667 86.2364,7.10482667 C85.7550667,6.63736 85.1089333,6.37149333 84.4308,6.37149333 L80.2430667,6.37149333 C79.1886667,6.37149333 78.262,7.00536 77.8601333,7.93976 C77.7612,7.70989333 77.6289333,7.49309333 77.4644,7.29736 C76.9713333,6.71042667 76.2441333,6.37149333 75.4777333,6.37149333 L71.2756,6.37149333 C70.3942667,6.37149333 69.6038667,6.81496 69.1329333,7.50536 C67.8894667,6.57336 66.2868,6.08269333 64.4564,6.08269333 C64.3798667,6.08269333 64.7604,3.06002667 64.7604,3.06002667 C64.8934667,2.30509333 64.6857333,1.53016 64.1926667,0.94296 C63.6998667,0.35576 62.9724,0.01656 62.2057333,0.01656 L55.7078667,0.01656 C54.4489333,0.01656 53.3713333,0.920826667 53.1534667,2.16082667 L52.5177333,5.77096 C52.4844,5.96082667 52.4729333,6.15202667 52.4817333,6.34109333 C51.8462667,6.16989333 51.1678667,6.08002667 50.4569333,6.08002667 C48.8286667,6.10722667 47.486,6.49789333 46.3308,7.23362667 C45.2292,6.48989333 43.8710667,6.08269333 42.3705333,6.08269333 C41.0948,6.08269333 39.9164,6.35256 38.8686667,6.87629333 C38.0268,6.36109333 36.9988,6.08269333 35.8436,6.08269333 C34.8182667,6.08269333 33.8588,6.29202667 32.9598667,6.55922667 C32.6574667,6.43896 32.3334667,6.37149333 32.0006667,6.37149333 L28.7950667,6.37149333 C28.2804,6.37149333 27.7876,6.52376 27.3713333,6.79736 C26.3556,6.32829333 25.1785333,6.08269333 23.8852,6.08269333 C21.3996,6.08269333 19.3342667,6.97176 17.8190667,8.62189333 C17.5862667,8.32856 17.3470667,8.07896 17.118,7.87202667 C15.8233333,6.70136 14.0516,6.08269333 11.9942667,6.08269333 C11.9174667,6.08269333 12.2982667,3.06002667 12.2982667,3.06002667 C12.4313333,2.30509333 12.2230667,1.53016 11.7302667,0.94296 C11.2377333,0.35576 10.5102667,0.01656 9.74386667,0.01656 L3.24546667,0.01656 C1.98626667,0.01656 0.9092,0.920826667 0.6908,2.16082667 L0.0553333333,5.77096 C-0.0774666667,6.52589333 0.130266667,7.30109333 0.623333333,7.88829333 C0.949466667,8.27682667 1.37826667,8.55682667 1.85346667,8.70162667 L0.254533333,17.8392267 C-0.292933333,20.9634933 0.729733333,22.9736267 1.6844,24.1098933 C3.1948,25.9080267 5.59106667,26.8584267 8.61426667,26.8584267 C11.2238667,26.8584267 13.4185333,26.16056 15.1382667,24.7840267 C15.3729333,24.5960267 15.5966667,24.39496 15.8102667,24.1824267 C15.8833333,24.2808267 15.9572,24.3754933 16.0305333,24.4632267 C17.3326667,26.01256 19.3628,26.8656267 21.7481333,26.8656267 C23.1417333,26.8656267 24.4217333,26.5784267 25.5473333,26.0202933 C26.4076,26.5720267 27.4689333,26.8656267 28.6793333,26.8656267 C29.6593333,26.8656267 30.5662667,26.6794933 31.5510667,26.38456 C31.8564,26.5080267 32.1846667,26.5770933 32.522,26.5770933 L36.71,26.5770933 C37.4870667,26.5770933 38.1945333,26.2328267 38.6737333,25.6776267 C39.1662667,26.2482933 39.8830667,26.5770933 40.6377333,26.5770933 L44.8252,26.5770933 C45.5950667,26.5770933 46.2969333,26.2392267 46.7761333,25.6930933 C47.2676,26.25256 47.9774667,26.5746933 48.7241333,26.5746933 L52.9118667,26.5746933 C53.9150667,26.5746933 54.8012,25.99896 55.2308,25.1392267 C56.7078667,26.2666933 58.6969333,26.8584267 61.0769333,26.8584267 C63.6862667,26.8584267 65.8809333,26.16056 67.6004,24.7840267 C67.9006667,24.54376 68.1822667,24.2816267 68.4473333,24.00216 C68.4766667,24.03816 68.5054667,24.0760267 68.5342667,24.1104267 C70.0446667,25.9082933 72.4412,26.85896 75.4644,26.85896 C77.5164,26.85896 79.3113333,26.4250933 80.8217333,25.5704267 C80.8436,25.5984267 80.8630667,25.6288267 80.8862667,25.6560267 C81.3788,26.2402933 82.1041333,26.5770933 82.8684,26.5770933 L86.0452,26.5770933 C86.5337333,26.5770933 87.0028,26.43976 87.4052,26.1920267 C88.4329333,26.6344267 89.622,26.8656267 90.926,26.8656267 C93.05,26.8656267 95.2449333,26.05576 96.8289333,24.5000267 C98.3494667,26.04936 100.6068,26.8656267 103.397733,26.8656267 C105.5476,26.8656267 107.411067,26.38936 108.9364,25.47496 C108.9788,25.5354933 109.021733,25.5954933 109.0692,25.6522933 C109.562267,26.2392267 110.288933,26.5776267 111.055333,26.5776267 L115.243067,26.5776267 C116.5044,26.5776267 117.583067,25.6698933 117.7988,24.4266933 L119.391867,15.23576 C119.5788,15.1634933 119.99,15.0648267 120.691333,15.0648267 C121.075867,15.0648267 121.508133,15.0936267 121.976133,15.15096 C123.533467,15.1698933 124.622,14.27976 124.843867,13.0280267 L125.5084,9.27336" id="path-3"></path>
    </defs>
    <g id="1_NuitDebout_Home" stroke="none" stroke-width="1" fill="none" fill-rule="evenodd">
        <g id="v2_NuitDebout_Home_Desktop-HD" transform="translate(-600.000000, -1461.000000)">
            <g id="3.social" transform="translate(0.000000, 1287.000000)">
                <g id="raw1" transform="translate(0.000000, 88.000000)">
                    <g id="bambuser" transform="translate(492.000000, 84.000000)">
                        <g id="ic_bambuser" transform="translate(105.000000, 0.000000)">
                            <mask id="mask-2" fill="white">
                                <use xlink:href="#path-1"></use>
                            </mask>
                            <g id="Mask"></g>
                            <g id="bambuserlogo" mask="url(#mask-2)">
                                <g transform="translate(2.933333, 2.400000)">
                                    <g id="Path-3271" stroke-width="1" fill="none">
                                        <mask id="mask-4" fill="white">
                                            <use xlink:href="#path-3"></use>
                                        </mask>
                                        <use id="Mask" fill="#424242" xlink:href="#path-3"></use>
                                    </g>
                                    <path d="M16.6914133,11.9590667 C16.6663467,9.01213333 14.7815467,7.50973333 11.9943467,7.50973333 C10.6114133,7.50973333 9.43008,7.88386667 8.47834667,8.63106667 L9.74368,1.4436 L3.24554667,1.4436 L2.61034667,5.054 L4.92048,5.054 L2.80954667,17.1196 C2.11648,21.0761333 4.65808,23.098 8.61461333,23.098 C12.6002133,23.098 15.2570133,21.0761333 15.9503467,17.1196 L16.5855467,13.4806667 C16.6810133,12.9364 16.7138133,12.4297333 16.6914133,11.9590667 M12.4274133,13.1993333 L11.67648,17.4158667 C11.62768,17.682 11.5615467,17.9212 11.47648,18.1348 C11.0431467,19.0521333 10.1538133,19.4878667 8.96101333,19.4878667 C7.54608,19.4878667 6.67968,18.8236 6.93968,17.4084 L7.67461333,13.2798667 C8.12261333,11.89 9.25088,11.1201333 10.5215467,11.1201333 C11.7055467,11.1201333 12.6874133,11.7841333 12.4274133,13.1993333" id="Fill-15" fill="#FFFFFF"></path>
                                </g>
                            </g>
                        </g>
                    </g>
                </g>
            </g>
        </g>
    </g>
</svg>