<?xml version="1.0" encoding="UTF-8" standalone="no"?>
<svg width="27px" height="32px" viewBox="0 0 27 32" version="1.1" xmlns="http://www.w3.org/2000/svg" xmlns:xlink="http://www.w3.org/1999/xlink">
    <!-- Generator: Sketch 3.7 (28169) - http://www.bohemiancoding.com/sketch -->
    <title>ic_scoopit</title>
    <desc>Created with Sketch.</desc>
    <defs></defs>
    <g id="1_NuitDebout_Home" stroke="none" stroke-width="1" fill="none" fill-rule="evenodd">
        <g id="v2_NuitDebout_Home_Desktop-HD" transform="translate(-1069.000000, -1691.000000)" fill="#95C747">
            <g id="3.social" transform="translate(0.000000, 1287.000000)">
                <g id="raw2" transform="translate(252.000000, 325.000000)">
                    <g id="scoopit" transform="translate(714.000000, 79.000000)">
                        <g id="ic_scoopit" transform="translate(103.000000, 0.000000)">
                            <path d="M0.0348656716,0.0071641791 C1.7518806,0.0205373134 4.29134328,0.0253134328 6.0078806,0.0047761194 L6.00358209,5.20453731 L0.024358209,5.20358209 L0.0348656716,0.0071641791 L0.0348656716,0.0071641791 Z" id="Path"></path>
                            <path d="M18.6454925,12.1853134 L15.1933134,12.1838806 L15.1622687,25.5269254 C15.168,26.865194 15.7826866,27.4316418 17.1223881,27.4774925 C17.2599403,27.4827463 18.5055522,27.4827463 18.6435821,27.4774925 L18.6340299,31.6312836 C16.5717015,31.8524179 14.2261493,32.0601791 12.1719403,31.6546866 C10.3068657,31.2854925 9.44955224,30.248597 9.1959403,28.2383284 C9.10710448,27.5395821 9.0641194,26.8384478 9.0641194,26.1325373 L9.08513433,12.2282985 L6.02698507,12.1824478 L6.04322388,31.6174328 L0.0143283582,31.6174328 L0.0124179104,19.8132537 L0,8.02101493 L9.0598209,8.01862687 L9.07558209,0.00382089552 L15.1503284,0.00525373134 L15.1426866,8.04250746 L18.6464478,8.04680597 L18.6454925,12.1853134 L18.6454925,12.1853134 Z" id="Path"></path>
                            <path d="M20.497194,31.6126567 L20.497194,25.7795821 C21.3764776,25.7958209 22.6975522,25.7853134 23.5763582,25.7853134 C24.4150448,25.7853134 25.7294328,25.7958209 26.568597,25.7795821 L26.5762388,31.6126567 C24.8386866,31.5997612 22.2361791,31.598806 20.497194,31.6126567 L20.497194,31.6126567 Z" id="Path"></path>
                            <path d="M26.5733731,6.56525373 L25.753791,22.9253731 C24.5425672,22.9158209 22.5385075,22.9067463 21.3263284,22.9296716 L20.4986269,6.62543284 L20.4952836,0 L26.5881791,0.00143283582 L26.5733731,6.56525373 L26.5733731,6.56525373 Z" id="Path"></path>
                        </g>
                    </g>
                </g>
            </g>
        </g>
    </g>
</svg>