<?xml version="1.0" encoding="UTF-8" standalone="no"?>
<svg width="32px" height="28px" viewBox="0 0 32 28" version="1.1" xmlns="http://www.w3.org/2000/svg" xmlns:xlink="http://www.w3.org/1999/xlink">
    <!-- Generator: Sketch 3.7 (28169) - http://www.bohemiancoding.com/sketch -->
    <title>Fill 3</title>
    <desc>Created with Sketch.</desc>
    <defs></defs>
    <g id="1_NuitDebout_Home" stroke="none" stroke-width="1" fill="none" fill-rule="evenodd">
        <g id="v2_NuitDebout_Home_Desktop-HD" transform="translate(-111.000000, -1464.000000)" fill="#5FB0EF">
            <g id="3.social" transform="translate(0.000000, 1287.000000)">
                <g id="raw1" transform="translate(0.000000, 88.000000)">
                    <g id="twitter" transform="translate(0.000000, 89.000000)">
                        <path d="M143,3.36523685 C142.460877,3.6854856 140.844008,4.32410811 139.335889,4.48435748 C140.302886,3.92298468 141.73438,2.08399186 142.087879,0.623122566 C141.158507,1.26174507 139.023391,2.19336643 137.969145,2.19336643 C137.969145,2.19336643 137.969145,2.19624142 137.971145,2.19824141 C136.767649,0.843746704 135.076031,0 133.197163,0 C129.552928,0 126.595939,3.18261257 126.595939,7.10934723 C126.595939,7.6543451 126.656064,8.18371803 126.765563,8.69334104 L126.763438,8.69334104 C121.818208,8.55659158 116.037105,5.887602 112.779243,1.31836985 C110.779251,5.04985527 112.509744,9.19908907 114.78111,10.7109582 C114.005738,10.7754579 112.572244,10.6152085 111.898496,9.91008629 C111.851622,12.3847016 112.958992,15.6660638 116.990352,16.8554342 C116.21273,17.3066824 114.84161,17.1778079 114.242362,17.0780583 C114.453237,19.1718001 117.171976,21.9059144 120.142589,21.9059144 C119.083843,23.2226593 115.470983,25.6191499 111,24.8554029 C114.037363,26.8476451 117.578224,27.9998906 121.326085,27.9998906 C131.976668,27.9998906 140.248011,18.7050519 139.802762,7.23834673 C139.802762,7.22459678 139.798888,7.21097183 139.798888,7.19922188 C139.798888,7.167972 139.802762,7.13672212 139.802762,7.10934723 C139.802762,7.07422237 139.798888,7.0390975 139.798888,7.00197265 C140.767634,6.29097543 142.068254,5.02923035 143,3.36523685" id="Fill-3"></path>
                    </g>
                </g>
            </g>
        </g>
    </g>
</svg>