<?xml version="1.0" encoding="utf-8"?>
<!-- Generator: Adobe Illustrator 19.2.1, SVG Export Plug-In . SVG Version: 6.00 Build 0)  -->
<svg version="1.1" id="Calque_1" xmlns="http://www.w3.org/2000/svg" xmlns:xlink="http://www.w3.org/1999/xlink" x="0px" y="0px"
	 viewBox="0 0 20 28" style="enable-background:new 0 0 20 28;" xml:space="preserve">
<style type="text/css">
	.st0{fill:#12110B;}
</style>
<title>ic_bambuser</title>
<desc>Created with Sketch.</desc>
<g>
	<path class="st0" d="M11.1,12.2c-1.1,0-2.1,0.7-2.5,1.9l-0.7,3.7c-0.2,1.3,0.5,1.9,1.8,1.9c1.1,0,1.9-0.4,2.2-1.2
		c0.1-0.2,0.1-0.4,0.2-0.6l0.7-3.8C13,12.7,12.1,12.2,11.1,12.2z"/>
	<path class="st0" d="M18.7,13.2c0-1.3-0.4-2.4-1-3.3c0,0,0,0,0,0s-0.4-0.5-0.6-0.7c-0.3-0.2-0.5-0.4-0.9-0.6c-1-0.6-2.3-1-3.7-1
		c-0.1,0-0.1,0-0.2,0L12.8,5c0.1-0.7-0.1-1.4-0.5-1.9c-0.4-0.5-1.1-0.8-1.8-0.8h-0.3H4.7c-1.1,0-2.1,0.8-2.3,1.9L2.3,5L1.9,7.4
		C1.8,8.1,2,8.8,2.4,9.3C2.7,9.7,3.1,9.9,3.5,10l-1.4,8.2c-0.2,1.3-0.1,2.5,0.1,3.4c0.3,1,0.7,1.7,1.2,2.2c1.4,1.6,3.5,2.5,6.2,2.5
		c1.8,0,3.3-0.4,4.6-1.1c1.9-1.2,3.2-3.1,3.7-5.9l0.8-4.3C18.7,14.4,18.8,13.8,18.7,13.2z M16.5,14.3l-0.6,3.3
		c-0.6,3.5-3,5.3-6.6,5.3c-3.5,0-5.8-1.8-5.2-5.3L6.1,6.7H4l0.6-3.2h5.8L9.3,9.9c0.9-0.7,1.9-1,3.1-1c2.5,0,4.2,1.3,4.2,4
		C16.6,13.3,16.6,13.8,16.5,14.3z"/>
</g>
</svg>
