<?xml version="1.0" encoding="utf-8"?>
<!-- Generator: Adobe Illustrator 19.2.1, SVG Export Plug-In . SVG Version: 6.00 Build 0)  -->
<svg version="1.1" id="Calque_1" xmlns="http://www.w3.org/2000/svg" xmlns:xlink="http://www.w3.org/1999/xlink" x="0px" y="0px"
	 viewBox="0 0 24 24" style="enable-background:new 0 0 24 24;" xml:space="preserve">
<style type="text/css">
	.st0{fill:#37474F;}
</style>
<path class="st0" d="M12-0.2c-6.6,0-12,5.4-12,12c0,6.6,5.4,12,12,12c6.6,0,12-5.4,12-12C24,5.2,18.6-0.2,12-0.2z M16.2,12.2
	l-0.4,2.1c-0.2,1.4-0.9,2.4-1.8,3c-0.7,0.4-1.4,0.5-2.3,0.5c-1.3,0-2.4-0.4-3.1-1.2c-0.2-0.2-0.5-0.6-0.6-1.1
	c-0.1-0.5-0.2-1-0.1-1.7l0.7-4.1C8.4,9.7,8.2,9.5,8,9.3C7.8,9.1,7.7,8.8,7.8,8.4L8,7.2l0-0.4c0.1-0.5,0.6-1,1.2-1h2.8h0.1
	c0.4,0,0.7,0.2,0.9,0.4s0.3,0.6,0.2,1L13,8.5c0,0,0,0,0.1,0c0.7,0,1.4,0.2,1.9,0.5c0.2,0.1,0.3,0.2,0.4,0.3c0.1,0.1,0.3,0.4,0.3,0.4
	c0.3,0.4,0.5,1,0.5,1.6C16.2,11.6,16.2,11.9,16.2,12.2z"/>
<path class="st0" d="M13,9.2c-0.6,0-1.1,0.1-1.5,0.5L12,6.5H9.1L8.8,8h1l-1,5.5c-0.3,1.8,0.9,2.7,2.6,2.7c1.8,0,3-0.9,3.3-2.7
	l0.3-1.7c0-0.2,0-0.5,0-0.7C15.1,9.8,14.3,9.2,13,9.2z M12.9,13.7c0,0.1,0,0.2-0.1,0.3c-0.2,0.4-0.5,0.6-1.1,0.6c-0.7,0-1-0.3-0.9-1
	l0.3-1.8c0.2-0.6,0.7-1,1.2-1c0.5,0,1,0.2,0.9,1L12.9,13.7z"/>
</svg>
