<?xml version="1.0" encoding="utf-8"?>
<!-- Generator: Adobe Illustrator 19.2.1, SVG Export Plug-In . SVG Version: 6.00 Build 0)  -->
<svg version="1.1" id="Calque_1" xmlns="http://www.w3.org/2000/svg" xmlns:xlink="http://www.w3.org/1999/xlink" x="0px" y="0px"
	 viewBox="0 0 32 32" style="enable-background:new 0 0 32 32;" xml:space="preserve">
<style type="text/css">
	.st0{fill:#125688;}
</style>
<title>ic_instagram</title>
<desc>Created with Sketch.</desc>
<g id="_x31__x5F_NuitDebout_x5F_Home">
	<g id="v2_NuitDebout_Home_Desktop-HD" transform="translate(-1067.000000, -1455.000000)">
		<g id="_x33_.social" transform="translate(0.000000, 1287.000000)">
			<g id="raw1" transform="translate(0.000000, 88.000000)">
				<g id="instagram" transform="translate(966.000000, 80.000000)">
					<path id="ic_instagram" class="st0" d="M126.6,9.4c0,0.4-0.2,0.6-0.6,0.6h-2.4c-0.4,0-0.6-0.2-0.6-0.6V7c0-0.4,0.2-0.6,0.6-0.6
						h2.4c0.4,0,0.6,0.2,0.6,0.6V9.4z M108,25.6c-0.4,0-0.6-0.2-0.6-0.6V14.8h2.5c-0.1,0.4-0.1,0.8-0.1,1.2c0,4,3.2,7.2,7.2,7.2
						s7.2-3.2,7.2-7.2c0-0.4,0-0.8-0.1-1.2h2.5V25c0,0.4-0.2,0.6-0.6,0.6H108z M117,11.2c2.6,0,4.8,2.2,4.8,4.8s-2.2,4.8-4.8,4.8
						s-4.8-2.2-4.8-4.8S114.4,11.2,117,11.2L117,11.2z M126.6,4h-19.2c-1.3,0-2.4,1.1-2.4,2.4v19.2c0,1.3,1.1,2.4,2.4,2.4h19.2
						c1.3,0,2.4-1.1,2.4-2.4V6.4C129,5.1,127.9,4,126.6,4L126.6,4z"/>
				</g>
			</g>
		</g>
	</g>
</g>
</svg>
