<?xml version="1.0" encoding="utf-8"?>
<!-- Generator: Adobe Illustrator 19.2.1, SVG Export Plug-In . SVG Version: 6.00 Build 0)  -->
<svg version="1.1" id="Calque_1" xmlns="http://www.w3.org/2000/svg" xmlns:xlink="http://www.w3.org/1999/xlink" x="0px" y="0px"
	 viewBox="0 0 24 24" style="enable-background:new 0 0 24 24;" xml:space="preserve">
<style type="text/css">
	.st0{fill:#37474F;}
</style>
<g>
	<path class="st0" d="M12,10c-3.2,0-5.8,1.7-5.8,3.7c0,2,2.6,3.7,5.8,3.7c3.2,0,5.8-1.7,5.8-3.7C17.8,11.6,15.2,10,12,10z M9,12.9
		c0-0.5,0.4-1,1-1c0.5,0,1,0.4,1,1c0,0.5-0.4,1-1,1C9.4,13.9,9,13.5,9,12.9z M14.3,15.6c0,0-0.7,0.8-2.3,0.8c-1.6,0-2.3-0.7-2.3-0.8
		c-0.1-0.1-0.1-0.3,0-0.4c0.1-0.1,0.3-0.1,0.4,0c0,0,0.6,0.6,1.9,0.6c1.4,0,2-0.6,2-0.6c0.1-0.1,0.3-0.1,0.4,0
		C14.4,15.4,14.4,15.5,14.3,15.6z M14.1,13.9c-0.5,0-1-0.4-1-1c0-0.5,0.4-1,1-1c0.5,0,1,0.4,1,1C15.1,13.5,14.7,13.9,14.1,13.9z"/>
	<path class="st0" d="M7.2,10.9c-0.2-0.1-0.4-0.2-0.6-0.2c-0.6,0-1.1,0.5-1.1,1.1c0,0.3,0.1,0.6,0.4,0.8C6.1,12,6.6,11.4,7.2,10.9z"
		/>
	<path class="st0" d="M17.4,10.7c-0.2,0-0.4,0.1-0.6,0.2c0.6,0.5,1.1,1.1,1.3,1.8c0.2-0.2,0.4-0.5,0.4-0.8
		C18.5,11.2,18,10.7,17.4,10.7z"/>
	<path class="st0" d="M12,0C5.4,0,0,5.4,0,12c0,6.6,5.4,12,12,12s12-5.4,12-12C24,5.4,18.6,0,12,0z M18.2,13.2c0,0.2,0,0.3,0,0.5
		c0,2.3-2.8,4.2-6.3,4.2S5.7,16,5.7,13.7c0-0.2,0-0.3,0-0.5C5.3,12.9,5,12.4,5,11.8c0-0.9,0.7-1.6,1.6-1.6c0.4,0,0.8,0.1,1.1,0.4
		c1.1-0.7,2.5-1.1,4.1-1.2l1.1-3.2l2.7,0.6c0.2-0.5,0.7-0.8,1.2-0.8c0.7,0,1.3,0.6,1.3,1.3s-0.6,1.3-1.3,1.3c-0.7,0-1.3-0.6-1.3-1.3
		l-2.3-0.5l-0.9,2.6c1.5,0.1,2.9,0.5,4,1.2c0.3-0.3,0.7-0.4,1.1-0.4c0.9,0,1.6,0.7,1.6,1.6C19,12.4,18.7,12.9,18.2,13.2z"/>
	<circle class="st0" cx="16.9" cy="7.4" r="0.8"/>
</g>
</svg>
