<?xml version="1.0" encoding="utf-8"?>
<!-- Generator: Adobe Illustrator 19.2.1, SVG Export Plug-In . SVG Version: 6.00 Build 0)  -->
<svg version="1.1" id="Calque_1" xmlns="http://www.w3.org/2000/svg" xmlns:xlink="http://www.w3.org/1999/xlink" x="0px" y="0px"
	 viewBox="0 0 24 24" style="enable-background:new 0 0 24 24;" xml:space="preserve">
<style type="text/css">
	.st0{fill:#37474F;}
</style>
<path class="st0" d="M12,0C5.4,0,0,5.3,0,12s5.4,12,12,12c6.6,0,12-5.4,12-12S18.6,0,12,0z M7,6c0.6,0,1.6,0,2.2,0l0,2H7L7,6z
	 M14,11h-1.3l0,4.8c0,0.5,0.2,0.6,0.7,0.6c0.1,0,0.5-0.1,0.6-0.1l0,1.5c-0.8,0.1-1.7,0.1-2.4,0c-0.7-0.1-1-0.5-1.1-1.3
	c0-0.3,0-0.5,0-0.8l0-5.2l-1.2,0l0,7.4H7v-4.6L7,9h3.4l0-3h2.3l0,3L14,9V11z M15,17.9v-2.2c0,0,0.7,0,1,0c0.3,0,0.7,0,1.1,0l0.1,2.2
	C16.5,17.9,16,17.9,15,17.9z M17,8.5l-0.3,6.2c-0.5,0-1.2,0-1.7,0l-0.3-6.1l0-2.5H17L17,8.5z"/>
</svg>
