<?xml version="1.0" encoding="utf-8"?>
<!-- Generator: Adobe Illustrator 19.2.1, SVG Export Plug-In . SVG Version: 6.00 Build 0)  -->
<svg version="1.1" id="Calque_1" xmlns="http://www.w3.org/2000/svg" xmlns:xlink="http://www.w3.org/1999/xlink" x="0px" y="0px"
	 viewBox="0 0 24 24" style="enable-background:new 0 0 24 24;" xml:space="preserve">
<style type="text/css">
	.st0{fill:#37474F;}
</style>
<g>
	<path class="st0" d="M15,13c-0.1-0.3-0.2-0.5-0.1-0.7c0.2-0.4,0.6-0.5,0.9-0.6c0.1,0,0.1,0,0.1,0c0.3-0.1,0.3-0.2,0.3-0.2
		c0,0,0,0-0.1,0c-0.1,0-0.2,0-0.2,0c-0.2,0.1-0.5,0.2-0.7,0.2c-0.3,0-0.5-0.2-0.5-0.2l-0.1-0.1l0-0.1c0-0.1,0-0.2,0-0.3l0,0
		c0-0.8,0.1-1.7-0.1-2.2C14,7,12.5,6.9,12.1,6.9l-0.2,0C11.5,6.9,10,7,9.3,8.5C9.1,9,9.2,10,9.2,10.7c0,0.1,0,0.2,0,0.4l0,0.1
		l-0.1,0.1c0,0-0.2,0.2-0.6,0.2c-0.2,0-0.4-0.1-0.7-0.2c0,0,0,0,0,0c-0.1,0-0.2,0-0.2,0.1c0,0,0.1,0.1,0.3,0.2c0,0,0.1,0,0.1,0
		c0.3,0.1,0.7,0.2,0.9,0.6C9.2,12.4,9.2,12.7,9,13c-0.1,0.2-0.8,1.7-2.3,2.1c0.2,0.1,0.5,0.2,1.1,0.3c0.3,0,0.3,0.3,0.4,0.6
		c0,0.1,0,0.1,0,0.2c0,0,0.1,0,0.1,0C8.5,16.1,8.7,16,9,16c0.2,0,0.3,0,0.5,0c0.4,0.1,0.7,0.3,1,0.5c0.4,0.3,0.8,0.6,1.4,0.6l0,0
		c0.1,0,0.1,0,0.1,0c0.6,0,1-0.3,1.4-0.6c0.3-0.2,0.6-0.4,1-0.5c0.2,0,0.3,0,0.5,0c0.3,0,0.5,0,0.7,0.1c0,0,0.1,0,0.1,0
		c0-0.1,0-0.1,0-0.2c0.1-0.2,0.1-0.5,0.4-0.6c0.6-0.1,0.9-0.2,1.1-0.3C15.7,14.7,15,13,15,13z"/>
	<path class="st0" d="M12,0C5.4,0,0,5.4,0,12s5.4,12,12,12c6.6,0,12-5.4,12-12S18.6,0,12,0z M18,15.2c-0.1,0.3-0.6,0.5-1.6,0.7
		c0,0.1,0,0.1,0,0.2c0,0.1,0,0.2-0.1,0.3c-0.1,0.2-0.2,0.3-0.4,0.3c-0.1,0-0.2,0-0.3,0c-0.3-0.1-0.6-0.1-1,0c-0.3,0-0.5,0.2-0.8,0.4
		c-0.4,0.3-0.9,0.7-1.7,0.7c0,0-0.1,0-0.1,0l-0.1,0c-0.8,0-1.3-0.3-1.7-0.7c-0.3-0.2-0.5-0.4-0.8-0.4c-0.4-0.1-0.8,0-1,0
		c-0.1,0-0.2,0-0.3,0c-0.2,0-0.4-0.1-0.4-0.3c0-0.1,0-0.2-0.1-0.3c0,0,0-0.1,0-0.2c-0.9-0.2-1.4-0.4-1.6-0.7c0-0.1,0-0.1,0-0.2
		c0-0.2,0.1-0.4,0.3-0.4c1.5-0.2,2.2-1.8,2.2-1.9c0.1-0.1,0.1-0.2,0.1-0.3c-0.1-0.2-0.4-0.3-0.6-0.3c-0.1,0-0.1,0-0.2-0.1
		c-0.6-0.3-0.7-0.6-0.7-0.8c0.1-0.4,0.7-0.6,1-0.5c0.2,0.1,0.4,0.1,0.5,0.1l0-0.2C8.6,9.9,8.6,8.9,8.9,8.3c0.8-1.8,2.5-2,3-2l0.2,0
		c0.5,0,2.2,0.1,3,2c0.3,0.6,0.2,1.6,0.2,2.4l0,0.2c0,0,0,0,0,0c0.1,0,0.3,0,0.4-0.1c0.1,0,0.2-0.1,0.3-0.1c0.1,0,0.2,0,0.3,0.1l0,0
		c0.3,0.1,0.5,0.3,0.5,0.5c0,0.3-0.2,0.5-0.7,0.7c0,0-0.1,0-0.2,0.1c-0.2,0.1-0.5,0.2-0.6,0.3c0,0.1,0,0.2,0.1,0.3l0,0
		c0,0,0.7,1.6,2.2,1.9c0.2,0,0.3,0.2,0.3,0.4C18,15.1,18,15.1,18,15.2z"/>
</g>
</svg>
