<?xml version="1.0" encoding="utf-8"?>
<!-- Generator: Adobe Illustrator 19.2.1, SVG Export Plug-In . SVG Version: 6.00 Build 0)  -->
<svg version="1.1" id="Calque_1" xmlns="http://www.w3.org/2000/svg" xmlns:xlink="http://www.w3.org/1999/xlink" x="0px" y="0px"
	 viewBox="0 0 24 24" style="enable-background:new 0 0 24 24;" xml:space="preserve">
<style type="text/css">
	.st0{fill:#37474F;}
</style>
<title>ic_wiki_dark</title>
<desc>Created with Sketch.</desc>
<g id="ic_wiki_dark" transform="translate(1404.000000, 19.000000)">
	<path id="Fill-1" class="st0" d="M-1384-10.4c0,0.1-0.1,0.2-0.2,0.2h-1l-4.4,9.3c0,0.1-0.1,0.1-0.2,0.1h0c-0.1,0-0.1,0-0.2-0.1
		l-2.1-4.1l-2.2,4.1c0,0.1-0.1,0.1-0.2,0.1c-0.1,0-0.1,0-0.2-0.1l-4.4-9.3h-1c-0.1,0-0.2-0.1-0.2-0.2v-0.5c0-0.1,0.1-0.2,0.2-0.2
		h3.5c0.1,0,0.2,0.1,0.2,0.2v0.5c0,0.1-0.1,0.2-0.2,0.2h-0.8l3,7l1.6-3l-2-4.1h-0.5c-0.1,0-0.2-0.1-0.2-0.2v-0.5
		c0-0.1,0.1-0.2,0.2-0.2h2.6c0.1,0,0.2,0.1,0.2,0.2v0.5c0,0.1-0.1,0.2-0.2,0.2h-0.5l1.2,2.5l1.4-2.5h-0.8c-0.1,0-0.2-0.1-0.2-0.2
		v-0.5c0-0.1,0.1-0.2,0.2-0.2h2.6c0.1,0,0.2,0.1,0.2,0.2v0.5c0,0.1-0.1,0.2-0.2,0.2h-0.6l-2,3.6l1.6,3.4l3.2-7h-1
		c-0.1,0-0.2-0.1-0.2-0.2v-0.5c0-0.1,0.1-0.2,0.2-0.2h3.1c0.1,0,0.2,0.1,0.2,0.2V-10.4z"/>
</g>
</svg>
